:SAMPLES-PER-SECOND 30
:FULLY-SPECIFIED
:DEGREES
424
root  37.1841 33.3136 -9.25464 19.8137 -69.2424 -6.78363
RightUpLeg  -33.9621 -6.08775 0.629813
RightLeg  30.4043 -11.2141 -5.59617
RightFoot  1.95959 0.011688 -0.305752
RightToes  -29.2594 -0.138855 -0.246786
Spine  9.89318 -0.0485225 -0.399137
Spine1  18.2414 1.3225 -4.05124
HEad  -6.89564 -24.4004 31.6202
LeftShoulder1  0 -2.42657e-020 -4.95415e-022
LeftArm  -42.8842 -5.96629 -75.893
LeftForeArm  55.7024 -14.9901 -2.66643
LeftHand  0.197457 -7.1835 -3.51827
RightShoulder  0 2.42657e-020 1.07489e-018
RightArm  -32.2902 14.8276 87.0936
RightForeArm  52.5706 19.5937 3.56379
RightHand  -1.16211 22.5468 -5.45659
LeftUpLeg  -24.2979 3.36637 1.16043
LeftLeg  25.787 -4.7963 -1.94817
LeftFoot  -6.89482 0.0364389 0.604867
LeftToes  -15.561 1.33192e-006 1.13262e-007
425
root  37.1793 33.3387 -9.32606 19.1882 -68.369 -6.61191
RightUpLeg  -32.5376 -4.39723 -0.468191
RightLeg  33.1068 -11.3159 -6.32243
RightFoot  0.295896 0.000702348 0.105304
RightToes  -27.766 -0.128844 -0.236143
Spine  9.90944 0.084655 -0.613483
Spine1  18.2017 1.72082 -4.49519
HEad  -6.41144 -24.6741 31.993
LeftShoulder1  0 -2.42657e-020 -4.95415e-022
LeftArm  -42.2695 -6.2601 -75.4265
LeftForeArm  55.6365 -14.9518 -2.65933
LeftHand  0.21849 -7.10347 -3.89276
RightShoulder  0 2.42657e-020 1.07489e-018
RightArm  -29.2374 15.0871 87.5902
RightForeArm  50.9291 22.1988 4.09389
RightHand  -1.14103 23.0365 -5.22635
LeftUpLeg  -23.7996 3.65575 1.44529
LeftLeg  25.4903 -5.7624 -2.30373
LeftFoot  -6.88406 0.0442789 0.736157
LeftToes  -19.793 1.33192e-006 1.13262e-007
426
root  37.1472 33.3447 -9.37859 18.2138 -67.3824 -5.82233
RightUpLeg  -31.0977 -3.86811 -1.49099
RightLeg  34.7931 -10.8655 -6.49933
RightFoot  -1.4511 0.00184075 0.523155
RightToes  -26.4432 -0.120211 -0.226501
Spine  9.75793 0.151494 -0.857678
Spine1  17.8711 1.86394 -4.73562
HEad  -6.27961 -25.0569 32.3345
LeftShoulder1  0 -2.42657e-020 -4.95415e-022
LeftArm  -40.397 -6.36925 -75.4929
LeftForeArm  55.232 -15.3471 -2.73477
LeftHand  0.242546 -7.30415 -4.17256
RightShoulder  0 2.42657e-020 1.07489e-018
RightArm  -27.6825 14.4434 87.9288
RightForeArm  48.2448 25.3235 4.75861
RightHand  -1.04349 23.3458 -4.67895
LeftUpLeg  -23.656 4.11243 1.33592
LeftLeg  25.2939 -7.20591 -2.84795
LeftFoot  -5.81822 0.0403501 0.794002
LeftToes  -18.8351 1.33192e-006 1.13262e-007
427
root  37.0895 33.3342 -9.42387 17.1467 -66.4244 -4.74774
RightUpLeg  -29.6314 -4.08497 -2.51246
RightLeg  35.4569 -10.6836 -6.56073
RightFoot  -2.5036 0.00848305 0.765975
RightToes  -26.8145 -0.120838 -0.227209
Spine  9.52914 0.231811 -1.10027
Spine1  17.4066 1.94253 -4.80234
HEad  -6.62269 -25.579 32.8182
LeftShoulder1  0 -2.42657e-020 -4.95415e-022
LeftArm  -38.1127 -6.55624 -76.1535
LeftForeArm  54.3891 -15.9445 -2.84978
LeftHand  0.270859 -7.62788 -4.43531
RightShoulder  0 2.42657e-020 1.07489e-018
RightArm  -27.0277 13.3837 88.0424
RightForeArm  44.3766 28.2848 5.42378
RightHand  -0.925341 23.1011 -4.15659
LeftUpLeg  -23.8628 3.37878 1.12796
LeftLeg  25.4827 -7.29336 -2.90996
LeftFoot  -5.08094 0.0317292 0.715108
LeftToes  -14.4305 1.33192e-006 1.13262e-007
428
root  36.996 33.3197 -9.51448 16.4383 -65.6174 -4.04768
RightUpLeg  -28.2061 -4.73749 -3.37056
RightLeg  35.5706 -11.1023 -6.8416
RightFoot  -3.95517 0.0259479 1.12922
RightToes  -27.4195 -0.125474 -0.232391
Spine  9.43159 0.38758 -1.27957
Spine1  17.1879 2.17395 -4.79511
HEad  -7.51011 -26.0514 33.6417
LeftShoulder1  0 -2.42657e-020 -4.95415e-022
LeftArm  -35.866 -6.99726 -77.1897
LeftForeArm  53.0012 -16.9409 -3.0431
LeftHand  0.302625 -7.84942 -4.78302
RightShoulder  0 2.42657e-020 1.07489e-018
RightArm  -27.3326 12.7749 88.1805
RightForeArm  40.6809 30.3131 5.90248
RightHand  -0.789744 22.7864 -3.54859
LeftUpLeg  -24.2889 2.48909 1.17143
LeftLeg  26.2357 -6.93107 -2.87234
LeftFoot  -4.90802 0.0283639 0.661812
LeftToes  -13.9039 1.33192e-006 1.13262e-007
429
root  36.8918 33.3068 -9.6569 16.1174 -64.6346 -3.68105
RightUpLeg  -26.9106 -5.39932 -4.27889
RightLeg  35.3186 -11.5393 -7.03493
RightFoot  -4.75938 0.0410159 1.3647
RightToes  -28.0009 -0.1304 -0.237835
Spine  9.42633 0.487937 -1.31364
Spine1  17.1371 2.329 -4.65158
HEad  -8.66534 -26.4866 34.4186
LeftShoulder1  0 -2.42657e-020 -4.95415e-022
LeftArm  -33.7045 -7.51039 -78.5741
LeftForeArm  51.7175 -18.1871 -3.28697
LeftHand  0.310401 -8.03011 -4.79414
RightShoulder  0 2.42657e-020 1.07489e-018
RightArm  -28.3192 12.6832 88.1998
RightForeArm  37.2425 31.2612 6.13483
RightHand  -0.511274 22.6602 -2.18188
LeftUpLeg  -25.0031 1.81457 1.43107
LeftLeg  27.3068 -6.85736 -2.9929
LeftFoot  -4.75009 0.0262162 0.632064
LeftToes  -14.2352 1.33192e-006 1.13262e-007
